<svg width="350" height="220" viewBox="0 0 350 220" fill="none" xmlns="http://www.w3.org/2000/svg">
<path d="M321.846 177.77C321.762 177.736 321.717 177.642 321.746 177.554C324.13 170.264 330.257 164.65 337.736 162.902C337.83 162.88 337.924 162.938 337.946 163.032C337.969 163.126 337.91 163.22 337.816 163.242C330.455 164.963 324.425 170.488 322.079 177.663C322.049 177.755 321.95 177.805 321.858 177.775L321.846 177.77Z" fill="#2E2C2C"/>
<path d="M327.717 173.094C326.065 171.73 323.45 173.992 323.49 174.072C323.305 174.39 323.127 174.713 322.958 175.043C323.321 174.708 324.519 174.519 326.096 174.87C327.671 175.162 329.339 174.335 327.717 173.094Z" fill="#2E2C2C"/>
<path d="M322.77 169.379C321.101 168.1 320.286 170.877 321.375 172.172C322.399 173.476 322.952 174.54 322.93 175.029C323.077 174.689 323.233 174.353 323.396 174.022C323.314 174.012 324.304 170.649 322.77 169.379Z" fill="#2E2C2C"/>
<path d="M329.837 170.728C328.437 169.111 325.5 170.873 325.527 170.955C325.294 171.232 325.067 171.516 324.847 171.806C325.258 171.545 326.465 171.571 327.955 172.188C329.454 172.748 331.227 172.225 329.837 170.728Z" fill="#2E2C2C"/>
<path d="M325.586 166.237C324.156 164.697 322.901 167.279 323.76 168.731C324.553 170.183 324.923 171.316 324.822 171.788C325.021 171.483 325.229 171.183 325.443 170.889C325.363 170.869 326.884 167.749 325.586 166.237Z" fill="#2E2C2C"/>
<path d="M332.313 168.759C331.202 166.933 328.021 168.172 328.036 168.254C327.761 168.487 327.492 168.727 327.228 168.974C327.674 168.788 328.856 169.019 330.22 169.879C331.6 170.685 333.432 170.467 332.313 168.759Z" fill="#2E2C2C"/>
<path d="M328.875 163.623C327.722 161.867 326.059 164.199 326.665 165.771C327.206 167.333 327.383 168.508 327.206 168.953C327.453 168.688 327.706 168.43 327.965 168.177C327.888 168.146 329.899 165.332 328.875 163.623Z" fill="#2E2C2C"/>
<path d="M335.089 167.229C334.298 165.243 330.949 165.938 330.952 166.02C330.642 166.204 330.337 166.395 330.037 166.594C330.507 166.486 331.632 166.912 332.832 167.986C334.057 169.011 335.904 169.1 335.089 167.229Z" fill="#2E2C2C"/>
<path d="M332.561 161.588C331.719 159.665 329.68 161.691 330.016 163.341C330.288 164.972 330.266 166.16 330.018 166.569C330.305 166.349 330.597 166.137 330.894 165.931C330.822 165.888 333.282 163.446 332.561 161.588Z" fill="#2E2C2C"/>
<path d="M338.108 166.178C337.661 164.086 334.216 164.218 334.209 164.3C333.871 164.43 333.536 164.568 333.205 164.715C333.688 164.686 334.729 165.292 335.735 166.551C336.772 167.766 338.593 168.159 338.108 166.178Z" fill="#2E2C2C"/>
<path d="M336.571 160.192C336.065 158.154 333.687 159.815 333.74 161.5C333.729 163.154 333.506 164.323 333.192 164.686C333.512 164.517 333.837 164.355 334.167 164.202C334.099 164.147 336.962 162.144 336.571 160.192Z" fill="#2E2C2C"/>
<path d="M336.165 163.506C336.115 163.478 338.715 161.732 340.408 161.457C342.064 161.138 342.695 162.303 342.422 162.985C342.159 163.675 340.996 163.85 340.012 163.792C339.043 163.656 336.179 163.456 336.165 163.506Z" fill="#2E2C2C"/>
<path d="M336.12 163.614C336.115 163.612 336.111 163.609 336.106 163.607C336.063 163.582 336.04 163.532 336.049 163.483C336.049 163.48 336.051 163.476 336.052 163.472C336.061 163.441 336.069 163.417 336.111 163.402C336.529 163.002 338.934 161.578 340.389 161.342C341.204 161.184 341.902 161.369 342.301 161.851C342.588 162.198 342.678 162.659 342.53 163.028C342.174 163.961 340.507 163.937 340.005 163.908C339.06 163.776 336.452 163.595 336.204 163.615C336.176 163.625 336.147 163.624 336.12 163.614ZM341.622 161.64C341.346 161.527 340.96 161.469 340.43 161.571C339.095 161.788 337.21 162.92 336.517 163.385C336.763 163.394 337.144 163.42 337.739 163.463C338.505 163.518 339.509 163.603 340.028 163.676C340.971 163.731 342.074 163.568 342.313 162.943C342.43 162.651 342.354 162.281 342.121 162C342.026 161.885 341.868 161.74 341.622 161.64Z" fill="#2E2C2C"/>
<path d="M321.973 177.629C321.89 177.667 321.791 177.635 321.746 177.555C318.016 170.851 318.062 162.55 321.869 155.891C321.916 155.808 322.023 155.778 322.108 155.826C322.192 155.874 322.221 155.981 322.173 156.065C318.427 162.618 318.381 170.787 322.053 177.385C322.1 177.469 322.069 177.576 321.985 177.623L321.973 177.629Z" fill="#2E2C2C"/>
<path d="M322.534 170.152C320.408 170.432 320.289 173.884 320.375 173.909C320.483 174.261 320.599 174.611 320.725 174.959C320.727 174.466 321.404 173.46 322.734 172.547C324.021 171.593 324.549 169.811 322.534 170.152Z" fill="#2E2C2C"/>
<path d="M316.439 171.243C314.364 171.592 315.849 174.079 317.541 174.163C319.195 174.302 320.352 174.621 320.697 174.971C320.547 174.631 320.406 174.289 320.275 173.944C320.211 173.997 318.416 170.985 316.439 171.243Z" fill="#2E2C2C"/>
<path d="M322.24 166.994C320.099 166.918 319.394 170.265 319.473 170.3C319.518 170.659 319.572 171.019 319.635 171.377C319.723 170.899 320.563 170.034 322.031 169.364C323.462 168.649 324.284 166.997 322.24 166.994Z" fill="#2E2C2C"/>
<path d="M316.049 167.046C313.945 167.044 314.987 169.719 316.638 170.079C318.244 170.487 319.327 170.987 319.605 171.383C319.517 171.029 319.438 170.673 319.368 170.316C319.298 170.361 318.042 167.126 316.049 167.046Z" fill="#2E2C2C"/>
<path d="M322.479 163.843C320.381 163.413 319.127 166.582 319.197 166.627C319.181 166.986 319.174 167.346 319.176 167.707C319.343 167.255 320.317 166.548 321.876 166.136C323.407 165.675 324.494 164.187 322.479 163.843Z" fill="#2E2C2C"/>
<path d="M316.366 162.861C314.293 162.509 314.873 165.313 316.44 165.939C317.955 166.606 318.938 167.276 319.145 167.709C319.118 167.348 319.1 166.987 319.091 166.626C319.016 166.661 318.319 163.275 316.366 162.861Z" fill="#2E2C2C"/>
<path d="M323.244 160.772C321.247 159.999 319.478 162.921 319.541 162.975C319.465 163.326 319.398 163.679 319.339 164.035C319.58 163.618 320.658 163.084 322.264 162.938C323.85 162.74 325.172 161.449 323.244 160.772Z" fill="#2E2C2C"/>
<path d="M317.382 158.782C315.396 158.09 315.497 160.959 316.937 161.836C318.319 162.747 319.177 163.571 319.309 164.031C319.342 163.672 319.385 163.314 319.436 162.956C319.356 162.98 319.236 159.52 317.382 158.782Z" fill="#2E2C2C"/>
<path d="M324.526 157.849C322.686 156.752 320.438 159.36 320.493 159.421C320.359 159.757 320.233 160.096 320.115 160.437C320.423 160.065 321.576 159.716 323.186 159.838C324.783 159.906 326.311 158.842 324.526 157.849Z" fill="#2E2C2C"/>
<path d="M319.085 154.899C317.244 153.883 316.846 156.752 318.119 157.86C319.327 158.994 320.033 159.952 320.086 160.429C320.18 160.08 320.282 159.732 320.394 159.386C320.307 159.399 320.785 155.942 319.085 154.899Z" fill="#2E2C2C"/>
<path d="M321.242 157.453C321.188 157.47 321.675 154.381 322.625 152.956C323.518 151.528 324.803 151.859 325.118 152.523C325.445 153.185 324.783 154.154 324.07 154.835C323.311 155.451 321.215 157.409 321.242 157.453Z" fill="#2E2C2C"/>
<path d="M321.291 157.558C321.287 157.56 321.282 157.562 321.277 157.564C321.23 157.578 321.177 157.561 321.147 157.522C321.145 157.519 321.143 157.515 321.141 157.511C321.124 157.484 321.112 157.462 321.13 157.42C321.12 156.843 321.712 154.115 322.528 152.89C322.967 152.188 323.578 151.803 324.203 151.84C324.653 151.865 325.053 152.114 325.223 152.472C325.666 153.368 324.514 154.571 324.151 154.918C323.411 155.519 321.504 157.303 321.35 157.498C321.338 157.525 321.317 157.546 321.291 157.558ZM323.586 152.192C323.315 152.317 323.01 152.56 322.725 153.017C321.975 154.141 321.523 156.289 321.394 157.112C321.568 156.939 321.846 156.678 322.282 156.272C322.844 155.75 323.59 155.074 323.996 154.743C324.679 154.091 325.31 153.174 325.013 152.574C324.878 152.289 324.555 152.093 324.19 152.072C324.041 152.064 323.827 152.081 323.586 152.192Z" fill="#2E2C2C"/>
<path d="M32.4762 177.774C32.5449 177.745 32.5812 177.669 32.5578 177.597C30.6093 171.638 25.6008 167.048 19.4869 165.619C19.4102 165.601 19.3328 165.649 19.3149 165.726C19.2968 165.803 19.3446 165.88 19.4216 165.898C25.4387 167.304 30.3677 171.821 32.2854 177.686C32.31 177.761 32.3908 177.802 32.4661 177.777L32.4762 177.774Z" fill="#2E2C2C"/>
<path d="M27.6768 173.95C29.0274 172.835 31.1655 174.685 31.1326 174.75C31.2838 175.01 31.4289 175.274 31.5678 175.543C31.2708 175.27 30.2911 175.115 29.0023 175.402C27.7144 175.64 26.3509 174.965 27.6768 173.95Z" fill="#2E2C2C"/>
<path d="M31.7211 170.913C33.0849 169.867 33.7517 172.137 32.8613 173.196C32.024 174.262 31.5722 175.131 31.5903 175.532C31.4699 175.253 31.3426 174.979 31.2087 174.708C31.2761 174.7 30.4668 171.951 31.7211 170.913Z" fill="#2E2C2C"/>
<path d="M25.9438 172.016C27.0887 170.694 29.4897 172.134 29.4674 172.201C29.658 172.428 29.8435 172.66 30.0234 172.897C29.6876 172.684 28.7009 172.704 27.4825 173.209C26.2573 173.667 24.8079 173.239 25.9438 172.016Z" fill="#2E2C2C"/>
<path d="M29.4191 168.345C30.5879 167.087 31.6138 169.197 30.9116 170.384C30.2631 171.571 29.9609 172.497 30.0438 172.883C29.8803 172.634 29.7108 172.389 29.5354 172.148C29.6008 172.131 28.3578 169.581 29.4191 168.345Z" fill="#2E2C2C"/>
<path d="M23.9199 170.408C24.8285 168.915 27.4285 169.928 27.4163 169.995C27.6409 170.185 27.861 170.381 28.0766 170.583C27.7119 170.431 26.7458 170.62 25.6313 171.323C24.503 171.982 23.0053 171.804 23.9199 170.408Z" fill="#2E2C2C"/>
<path d="M26.7305 166.208C27.6727 164.773 29.0326 166.679 28.5368 167.963C28.0948 169.24 27.9498 170.201 28.0943 170.565C27.893 170.349 27.6863 170.137 27.4744 169.931C27.5371 169.905 25.8929 167.605 26.7305 166.208Z" fill="#2E2C2C"/>
<path d="M21.651 169.156C22.298 167.532 25.0357 168.101 25.0329 168.168C25.286 168.318 25.5356 168.474 25.7812 168.637C25.3971 168.549 24.477 168.896 23.4959 169.775C22.4946 170.613 20.9847 170.685 21.651 169.156Z" fill="#2E2C2C"/>
<path d="M23.7171 164.544C24.406 162.972 26.0724 164.628 25.7976 165.977C25.5759 167.31 25.5932 168.281 25.7959 168.616C25.5618 168.436 25.323 168.262 25.0797 168.094C25.1392 168.06 23.1284 166.063 23.7171 164.544Z" fill="#2E2C2C"/>
<path d="M19.1832 168.297C19.5482 166.587 22.3644 166.695 22.3705 166.762C22.6467 166.868 22.9202 166.981 23.1906 167.101C22.796 167.077 21.9448 167.573 21.1229 168.602C20.2752 169.595 18.7864 169.917 19.1832 168.297Z" fill="#2E2C2C"/>
<path d="M20.439 163.403C20.8533 161.737 22.7965 163.095 22.7534 164.473C22.7621 165.825 22.9445 166.781 23.2015 167.077C22.9397 166.939 22.6739 166.807 22.4044 166.681C22.4601 166.637 20.1196 164.999 20.439 163.403Z" fill="#2E2C2C"/>
<path d="M20.7719 166.112C20.8124 166.089 18.6872 164.662 17.303 164.437C15.9498 164.177 15.4333 165.129 15.6567 165.686C15.8721 166.251 16.8222 166.393 17.6271 166.346C18.4187 166.235 20.7603 166.072 20.7719 166.112Z" fill="#2E2C2C"/>
<path d="M20.8081 166.201L20.8194 166.196C20.8545 166.175 20.8736 166.134 20.8664 166.094L20.8633 166.086C20.8561 166.06 20.85 166.04 20.8153 166.028C20.4739 165.701 18.5076 164.537 17.3182 164.344C16.652 164.215 16.0816 164.367 15.7557 164.76C15.521 165.044 15.4473 165.421 15.5679 165.722C15.8592 166.485 17.2219 166.466 17.6326 166.442C18.4047 166.334 20.5363 166.186 20.7397 166.203C20.762 166.211 20.7864 166.21 20.8081 166.201ZM16.3107 164.588C16.5361 164.495 16.8515 164.448 17.2847 164.532C18.3766 164.709 19.9175 165.634 20.4834 166.014C20.2827 166.022 19.9712 166.043 19.485 166.078C18.8586 166.123 18.038 166.193 17.6138 166.252C16.8426 166.297 15.9409 166.164 15.7458 165.653C15.6502 165.414 15.7121 165.112 15.9029 164.882C15.9804 164.788 16.1098 164.67 16.3107 164.588Z" fill="#2E2C2C"/>
<path d="M32.3727 177.658C32.44 177.689 32.5212 177.663 32.5578 177.598C35.6075 172.117 35.5692 165.332 32.4578 159.889C32.4188 159.821 32.3313 159.797 32.2625 159.836C32.1938 159.875 32.1698 159.962 32.2091 160.031C35.2711 165.388 35.3087 172.065 32.3073 177.459C32.2689 177.528 32.2938 177.615 32.363 177.653L32.3727 177.658Z" fill="#2E2C2C"/>
<path d="M31.9141 171.546C33.6518 171.775 33.749 174.597 33.6787 174.617C33.5909 174.905 33.4955 175.191 33.3924 175.475C33.391 175.072 32.838 174.25 31.7502 173.504C30.6987 172.724 30.2668 171.267 31.9141 171.546Z" fill="#2E2C2C"/>
<path d="M36.8959 172.437C38.5921 172.723 37.3787 174.755 35.9955 174.825C34.6428 174.938 33.6972 175.199 33.4156 175.485C33.5379 175.207 33.6528 174.927 33.7605 174.645C33.8127 174.689 35.2801 172.226 36.8959 172.437Z" fill="#2E2C2C"/>
<path d="M32.1547 168.963C33.9045 168.901 34.4806 171.637 34.4167 171.666C34.3799 171.959 34.3356 172.253 34.2838 172.546C34.2121 172.155 33.5254 171.448 32.3258 170.9C31.1557 170.316 30.4835 168.965 32.1547 168.963Z" fill="#2E2C2C"/>
<path d="M37.2157 169.006C38.9351 169.005 38.0836 171.191 36.7343 171.485C35.4214 171.819 34.5358 172.228 34.3087 172.551C34.3806 172.262 34.4452 171.971 34.5025 171.68C34.5594 171.716 35.5861 169.072 37.2157 169.006Z" fill="#2E2C2C"/>
<path d="M31.9589 166.388C33.6734 166.036 34.6988 168.627 34.6413 168.663C34.6544 168.957 34.6603 169.252 34.6588 169.547C34.5219 169.177 33.726 168.599 32.4515 168.262C31.2 167.885 30.3116 166.669 31.9589 166.388Z" fill="#2E2C2C"/>
<path d="M36.9554 165.585C38.6503 165.298 38.1759 167.589 36.8953 168.101C35.657 168.647 34.8529 169.194 34.6838 169.548C34.7058 169.253 34.7204 168.958 34.7278 168.663C34.7893 168.691 35.3594 165.924 36.9554 165.585Z" fill="#2E2C2C"/>
<path d="M31.3338 163.877C32.9661 163.245 34.4119 165.633 34.3607 165.677C34.4227 165.964 34.4777 166.253 34.5255 166.544C34.3287 166.203 33.4475 165.767 32.1347 165.647C30.838 165.485 29.7574 164.43 31.3338 163.877Z" fill="#2E2C2C"/>
<path d="M36.1252 162.25C37.7484 161.684 37.6664 164.029 36.4889 164.746C35.3594 165.491 34.6581 166.165 34.5504 166.541C34.5229 166.247 34.488 165.954 34.4459 165.662C34.5119 165.682 34.6095 162.853 36.1252 162.25Z" fill="#2E2C2C"/>
<path d="M30.2856 161.488C31.7895 160.592 33.6269 162.724 33.582 162.774C33.6919 163.048 33.7949 163.325 33.891 163.605C33.6396 163.3 32.6967 163.015 31.3814 163.114C30.0757 163.17 28.8264 162.3 30.2856 161.488Z" fill="#2E2C2C"/>
<path d="M34.733 159.077C36.2383 158.247 36.5634 160.592 35.5228 161.497C34.5357 162.424 33.9581 163.208 33.9152 163.598C33.8386 163.312 33.7547 163.028 33.6636 162.745C33.7341 162.756 33.344 159.93 34.733 159.077Z" fill="#2E2C2C"/>
<path d="M32.9698 161.164C33.0144 161.178 32.6158 158.653 31.839 157.488C31.1096 156.321 30.0592 156.591 29.8017 157.134C29.534 157.676 30.0756 158.468 30.6582 159.024C31.2782 159.527 32.992 161.128 32.9698 161.164Z" fill="#2E2C2C"/>
<path d="M32.9291 161.25L32.9409 161.255C32.9795 161.267 33.0228 161.252 33.047 161.22L33.0515 161.212C33.0654 161.189 33.0756 161.171 33.0612 161.137C33.069 160.665 32.5854 158.436 31.9178 157.434C31.5588 156.86 31.0597 156.546 30.5488 156.575C30.181 156.596 29.8537 156.8 29.7148 157.092C29.3526 157.825 30.2943 158.808 30.5915 159.092C31.196 159.583 32.7552 161.041 32.8814 161.201C32.8907 161.223 32.9078 161.24 32.9291 161.25ZM31.0532 156.864C31.2745 156.966 31.5238 157.164 31.7573 157.538C32.3701 158.457 32.7395 160.213 32.8453 160.885C32.7031 160.744 32.4759 160.53 32.1193 160.199C31.6596 159.772 31.0501 159.219 30.7179 158.949C30.1599 158.416 29.6441 157.666 29.8867 157.175C29.9969 156.943 30.2608 156.783 30.5599 156.766C30.6812 156.759 30.8561 156.773 31.0532 156.864Z" fill="#2E2C2C"/>
<path d="M342.988 177.783H10.6173" stroke="#2E2C2C" stroke-width="0.5" stroke-linecap="round" stroke-linejoin="round"/>
<path d="M262.01 3.22339H92.3308C81.6191 3.22339 72.9355 11.8888 72.9355 22.5781V104.367C72.9355 115.056 81.6191 123.722 92.3308 123.722H262.01C272.722 123.722 281.405 115.056 281.405 104.367V22.5781C281.405 11.8888 272.722 3.22339 262.01 3.22339Z" fill="white"/>
<path d="M262.075 6.06519H92.0789C82.6657 6.06519 75.0346 13.6859 75.0346 23.0794V52.6673H75.0323V75.3242H75.0346V103.769C75.0346 113.162 82.6657 120.783 92.0789 120.783H262.075C271.493 120.783 279.124 113.162 279.124 103.769V23.0794C279.124 13.6859 271.493 6.06519 262.075 6.06519Z" fill="#D6D6D6"/>
<path d="M199.543 50.4373H145.753V25.7956C145.753 25.3595 145.498 24.9632 145.101 24.7819L104.096 6.06708H98.7246L143.519 26.5115V50.4373H75.0323V52.6672H102.571C100.37 74.9212 110.885 87.9575 120.203 94.999C128.247 101.077 136.581 103.78 139.999 104.703L129.77 120.78H132.417L150.736 91.9873V92.0055H183.419L178.16 120.78H180.432L192.881 52.6672H199.006L253.53 120.78H256.389L231.731 89.9762L263.562 66.4985C263.851 66.2851 264.015 65.9502 264.015 65.6018C264.015 65.5098 264.004 65.417 263.98 65.3252L254.482 28.3151H279.124V26.0853H232.863C232.442 26.0853 232.056 26.3215 231.866 26.6971L227.652 35.0099L212.122 20.8034L217.802 6.06708H215.408L209.764 20.7119C209.599 21.1382 209.712 21.6243 210.051 21.9341L226.604 37.0769L212.173 65.5438L200.416 50.8564C200.204 50.5914 199.883 50.4373 199.543 50.4373ZM233.55 28.3151H252.175L261.629 65.1513L230.335 88.2328L213.706 67.4588L233.55 28.3151ZM190.609 52.6672L183.827 89.7755H152.144L175.754 52.6672H190.609ZM173.107 52.6672L141.259 102.724C138.627 102.054 129.835 99.4796 121.553 93.2212C108.668 83.486 103.043 69.8427 104.813 52.6672H173.107Z" fill="white"/>
<path d="M176.546 6.06519V9.40445L197.668 17.8335V34.6916L177.015 25.7943V38.9062H156.837V19.2384L131.212 6.06519H176.546Z" fill="#BFBFBF"/>
<path d="M94.7688 99.7442V116.469H108.735V99.7442H94.7688Z" fill="#BFBFBF"/>
<path d="M94.7688 84.9152V96.9567H104.824V84.9152H94.7688Z" fill="#BFBFBF"/>
<path d="M139.249 97.6885L166.035 56.3003H109.871C109.871 56.3003 106.991 85.9044 139.249 97.6885Z" fill="#BFBFBF"/>
<path d="M94.7688 73.5418V81.3464H101.286V73.5418H94.7688Z" fill="#BFBFBF"/>
<path d="M226.051 59.0476L236.665 74.0995L252.307 65.7374L250.631 35.6336L236.106 33.9612L231.078 45.6682L238.899 50.6854L236.106 55.7028L227.726 51.2429L226.051 59.0476Z" fill="#BFBFBF"/>
<path d="M194.54 107.28H224.718L231.6 120.782H193.903L194.54 107.28Z" fill="#BFBFBF"/>
<path d="M213.27 84.8022H195.598L194.718 103.535H222.812L213.27 84.8022Z" fill="#BFBFBF"/>
<path d="M195.73 81.9926H211.838L206.113 70.7532H196.258L195.73 81.9926Z" fill="#BFBFBF"/>
<path d="M104.388 7.13843L105.049 7.44381" stroke="#2E2C2C" stroke-width="0.5" stroke-linejoin="round"/>
<path d="M106.388 8.0603L143.191 25.0445" stroke="#2E2C2C" stroke-width="0.5" stroke-linejoin="round"/>
<path d="M143.86 25.3542L144.522 25.6596V26.3872" stroke="#2E2C2C" stroke-width="0.5" stroke-linejoin="round"/>
<path d="M144.522 27.8184V49.9962" stroke="#2E2C2C" stroke-width="0.5" stroke-linejoin="round"/>
<path d="M144.522 50.7119V51.4395H143.793" stroke="#2E2C2C" stroke-width="0.5" stroke-linejoin="round"/>
<path d="M142.336 51.4392H105.177" stroke="#2E2C2C" stroke-width="0.5" stroke-linejoin="round"/>
<path d="M104.448 51.4392H103.719C103.719 51.4392 103.662 51.6875 103.58 52.1511" stroke="#2E2C2C" stroke-width="0.5" stroke-linejoin="round"/>
<path d="M103.365 53.5732C102.607 59.4502 101.881 76.3242 115.591 89.7342C125.106 99.0419 136.64 102.595 140.598 103.594" stroke="#2E2C2C" stroke-width="0.5" stroke-linejoin="round"/>
<path d="M141.299 103.763C141.76 103.869 142.01 103.916 142.01 103.916L142.401 103.302" stroke="#2E2C2C" stroke-width="0.5" stroke-linejoin="round"/>
<path d="M143.197 102.05L174.663 52.5955" stroke="#2E2C2C" stroke-width="0.5" stroke-linejoin="round"/>
<path d="M175.061 51.9694L175.452 51.3552H176.181" stroke="#2E2C2C" stroke-width="0.5" stroke-linejoin="round"/>
<path d="M177.645 51.3552H197.401" stroke="#2E2C2C" stroke-width="0.5" stroke-linejoin="round"/>
<path d="M198.132 51.3552H198.861L199.317 51.9232" stroke="#2E2C2C" stroke-width="0.5" stroke-linejoin="round"/>
<path d="M200.208 53.0342L233.634 94.6881" stroke="#2E2C2C" stroke-width="0.5" stroke-linejoin="round"/>
<path d="M234.08 95.2444L234.536 95.8123" stroke="#2E2C2C" stroke-width="0.5" stroke-linejoin="round"/>
<path d="M211.901 75.3895C211.378 75.9535 210.943 76.6245 210.946 76.8461C210.949 77.0677 213.645 80.7712 214.019 81.2255C214.394 81.6798 215.419 82.5414 215.419 82.5414L222.806 91.4978C222.563 91.6036 221.948 91.8734 221.823 91.9399C221.667 92.0232 222.012 92.2779 222.402 92.3157C222.793 92.3535 223.376 92.1887 223.376 92.1887L227.781 97.3119C227.781 97.3119 229.141 97.7633 230.187 97.3974C231.233 97.0316 233.048 95.855 234.539 94.4504C236.031 93.0458 236.491 92.6232 236.491 92.6232C236.491 92.6232 236.791 92.3326 236.854 92.1911C236.917 92.0497 237.437 89.7396 237.192 89.224C236.946 88.7084 236.711 88.5874 236.711 88.5874C236.711 88.5874 233.322 84.4232 233.146 84.2094L233.128 84.1883C233.227 83.9971 233.521 83.4149 233.541 83.2124C233.565 82.9688 233.332 82.5774 233.224 82.6654C233.129 82.7439 232.644 83.3916 232.542 83.5291L224.973 74.2461C224.973 74.2461 224.049 72.8534 223.454 72.1318C222.859 71.4103 220.83 69.222 220.422 69.1087C220.014 68.9954 219.675 69.1839 219.595 69.2499C219.514 69.3159 216.964 70.9622 216.09 71.5906C215.216 72.219 212.424 74.8255 211.901 75.3895Z" fill="#2E2C2C" stroke="#2E2C2C" stroke-width="0.5" stroke-linecap="round" stroke-linejoin="round"/>
<path d="M231.385 83.8179L231.953 83.7992L227.748 78.6462L226.405 79.0325C226.405 79.0325 230.508 83.4625 231.385 83.8179Z" fill="white"/>
<path d="M225.695 78.2261L226.884 77.6527L222.367 72.6663C222.367 72.6663 222.724 74.5696 222.901 74.7834C223.077 74.9972 225.695 78.2261 225.695 78.2261Z" fill="white"/>
<path d="M213.606 77.6192C213.606 77.6192 213.984 76.7706 214.792 76.062C215.6 75.3535 219.332 72.1988 219.715 72.0637C220.098 71.9287 220.928 72.0091 220.928 72.0091C220.928 72.0091 220.478 70.8098 220.072 70.4262C219.665 70.0426 219.065 70.132 218.909 70.2153C218.753 70.2986 215.493 72.6628 214.648 73.4909C213.804 74.3189 212.361 75.7281 212.266 75.9403C212.172 76.1524 212.367 76.9336 212.57 77.1254C212.773 77.3171 213.606 77.6192 213.606 77.6192Z" fill="white"/>
<path d="M214.155 79.3201C214.155 79.3201 215.59 80.0246 215.82 80.1944C216.05 80.3642 218.924 83.7409 218.924 83.7409L218.061 84.7637L215.166 81.09L214.155 79.3201Z" fill="white"/>
<path d="M218.908 85.6827L219.586 84.5435C219.586 84.5435 221.22 86.7426 221.58 87.3431C221.941 87.9435 223.361 90.3187 223.361 90.3187L223.223 90.9693L218.908 85.6827Z" fill="white"/>
<path d="M222.386 87.6658C222.386 87.6658 227.082 84.4815 228.774 82.2849L233.01 86.113C233.01 86.113 233.539 86.7544 233.551 86.8786C233.564 87.0027 233.557 87.3218 233.557 87.3218C233.557 87.3218 232.486 89.726 231.017 90.887C229.549 92.048 227.078 93.1364 226.802 93.1834C226.527 93.2305 226.075 93.0638 226.075 93.0638L225.398 92.6786L222.386 87.6658Z" fill="white"/>
<path d="M234.847 87.7427C234.847 87.7427 235.749 89.8709 235.788 90.7353C235.827 91.5997 235.682 92.0774 235.682 92.0774C235.682 92.0774 236.375 91.284 236.423 90.7967C236.47 90.3096 236.447 89.7909 236.284 89.431C236.122 89.071 234.847 87.7427 234.847 87.7427Z" fill="white"/>
<path d="M226.572 94.5383C226.572 94.5383 228.394 95.8213 228.965 96.0242C229.537 96.2271 230.523 96.2243 230.523 96.2243C230.523 96.2243 229.641 96.6798 229.343 96.7001C229.045 96.7205 227.902 96.3147 227.672 96.1449C227.442 95.975 226.602 94.738 226.572 94.5383Z" fill="white"/>
<path d="M158.777 124.027C158.777 124.027 154.106 135.922 152.995 139.692C151.884 143.462 151.44 149.227 151.44 149.227L187.082 152.827C187.082 152.827 193.216 151.223 192.772 147.897C192.327 144.571 188.33 138.38 182.772 133.04C177.215 127.699 168.773 123.282 166.106 123.282C163.439 123.282 158.777 124.027 158.777 124.027Z" fill="#737373" stroke="#2E2C2C" stroke-width="0.5" stroke-linecap="round" stroke-linejoin="round"/>
<path d="M283.757 136.75L285.853 146.28L277.934 147.906L283.757 136.75Z" fill="#2E2C2C" stroke="#2E2C2C" stroke-width="0.5" stroke-linecap="round" stroke-linejoin="round"/>
<path d="M307.69 147.019C306.154 142.676 303.849 142.42 303.849 142.42L297.192 125.302C297.192 125.302 289.767 126.324 286.695 128.879C283.622 131.434 276.453 147.786 276.453 147.786L282.086 183.3C282.086 183.3 305.386 178.446 306.154 177.935C306.922 177.424 307.69 172.569 307.946 169.503C308.202 166.437 309.226 151.363 307.69 147.019ZM279.331 146.395C279.331 146.395 285.387 133.38 286.784 131.52C288.182 129.661 290.511 128.615 290.511 128.615L295.326 127.517L300.176 143.025L279.331 146.395Z" fill="#B0B3DD" stroke="#2E2C2C" stroke-width="0.5" stroke-linecap="round" stroke-linejoin="round"/>
<path d="M279.098 147.442L285.852 146.28C285.852 146.28 288.531 141.166 289.346 140.469C290.161 139.772 291.326 139.075 293.305 139.539C295.285 140.004 299.478 142.329 299.245 143.839C299.012 145.35 298.662 145.815 296.45 146.163C294.237 146.512 288.414 146.512 288.414 146.512C288.414 146.512 286.901 148.952 286.551 149.417C286.202 149.882 280.496 151.742 280.496 151.742C280.496 151.742 279.797 149.882 279.098 147.442Z" fill="#2E2C2C" stroke="#2E2C2C" stroke-width="0.5" stroke-linecap="round" stroke-linejoin="round"/>
<path d="M256.196 199.407C256.196 199.407 254.812 200.643 254.156 201.151C253.501 201.66 252.408 202.605 251.316 202.969C250.223 203.332 249.64 203.55 249.713 204.132C249.786 204.713 249.786 205.295 250.15 205.367C250.514 205.44 263.625 205.367 263.625 205.367C263.625 205.367 263.99 204.786 263.917 203.477C263.844 202.169 263.407 201.151 263.407 201.151C263.407 201.151 260.056 200.207 258.6 199.407C257.143 198.607 256.196 199.407 256.196 199.407Z" fill="white" stroke="#2E2C2C" stroke-width="0.5" stroke-linecap="round" stroke-linejoin="round"/>
<path d="M263.843 204.713H249.782C249.831 205.054 249.912 205.32 250.15 205.367C250.515 205.44 263.626 205.367 263.626 205.367C263.626 205.367 263.754 205.156 263.843 204.713Z" fill="white" stroke="#2E2C2C" stroke-width="0.5" stroke-linecap="round" stroke-linejoin="round"/>
<path d="M251.899 149.834C251.899 149.834 250.952 155.94 251.899 162.264C252.845 168.587 253.865 173.094 253.865 173.094C253.865 173.094 255.322 179.418 255.468 181.453C255.613 183.488 256.997 194.246 256.924 194.464C256.852 194.682 256.706 195.191 256.706 195.554C256.706 195.918 255.759 196.426 255.905 196.863C256.05 197.299 256.196 199.407 256.196 199.407C256.196 199.407 257.871 199.116 258.6 199.407C259.328 199.697 262.606 200.86 262.606 200.86L263.407 201.151C263.407 201.151 264.281 200.497 264.281 199.479C264.281 198.462 262.97 197.299 262.97 197.299C262.97 197.299 263.844 196.935 263.917 196.572C263.99 196.208 263.553 194.9 263.553 194.682C263.553 194.464 263.407 192.283 263.407 191.847C263.407 191.411 263.48 185.887 263.48 185.233C263.48 184.579 262.824 174.548 262.824 174.548L262.096 167.279C262.096 167.279 263.844 175.493 264.573 178.109C265.301 180.726 267.413 191.702 267.486 192.065C267.559 192.429 267.85 195.263 267.777 195.482C267.705 195.7 266.903 196.208 266.976 196.499C267.049 196.79 267.559 200.424 267.559 200.424L272.803 200.86C272.803 200.86 273.386 199.77 273.677 198.97C273.969 198.171 273.459 197.444 273.459 197.153C273.459 196.863 273.896 196.935 273.75 195.772C273.605 194.609 273.459 193.664 273.459 193.664C273.459 193.664 273.095 193.083 273.022 191.048C272.949 189.012 274.114 183.416 273.313 180.217C272.512 177.019 271.565 174.33 271.492 170.841C271.419 167.352 271.419 160.81 271.128 159.065C270.837 157.321 270.37 151.865 270.37 151.865L270.181 151.07L251.899 149.834Z" fill="#8C8C8C" stroke="#2E2C2C" stroke-width="0.5" stroke-linecap="round" stroke-linejoin="round"/>
<path d="M258.163 159.866L260.931 161.174L261.877 166.48" stroke="#2E2C2C" stroke-width="0.5" stroke-linecap="round" stroke-linejoin="round"/>
<path d="M268.142 199.334C268.142 199.334 267.632 201.151 267.122 202.023C266.612 202.895 265.811 203.404 265.592 203.913C265.374 204.422 265.446 205.367 265.446 205.367H273.24C273.24 205.367 273.823 204.64 273.823 202.895C273.823 201.151 273.167 200.279 272.585 199.261C272.002 198.243 270.035 197.516 268.142 199.334Z" fill="white" stroke="#2E2C2C" stroke-width="0.5" stroke-linecap="round" stroke-linejoin="round"/>
<path d="M273.653 204.378L273.531 204.349H265.478C265.405 204.831 265.446 205.367 265.446 205.367H273.24C273.24 205.367 273.481 205.06 273.653 204.378Z" fill="white" stroke="#2E2C2C" stroke-width="0.5" stroke-linecap="round" stroke-linejoin="round"/>
<path d="M256.905 118.586C256.905 118.586 255.465 120.065 254.322 120.692C253.18 121.319 251.296 121.888 250.953 122.572C250.61 123.256 250.211 127.986 250.725 130.437C251.239 132.887 251.867 134.597 251.867 134.597L252.267 143.658L251.638 150.611C251.638 150.611 258.548 151.523 262.946 152.036C267.343 152.548 270.37 151.865 270.37 151.865C270.37 151.865 270.598 147.704 270.655 145.539C270.712 143.373 270.827 133.172 270.827 133.172L274.31 138.985C274.31 138.985 276.736 140.55 280.662 138.019C281.77 137.306 277.512 132.751 277.227 131.326C276.941 129.901 275.11 126.847 275.11 126.847C275.11 126.847 273.625 122.401 272.483 121.262C271.341 120.122 269.799 119.837 268.143 119.609C266.486 119.381 263.756 118.254 263.756 118.254L256.905 118.586Z" fill="#B0B3DD" stroke="#2E2C2C" stroke-width="0.5" stroke-linecap="round" stroke-linejoin="round"/>
<path d="M276.899 132.959C276.899 132.959 275.1 133.204 274.609 136.305" stroke="#2E2C2C" stroke-width="0.5" stroke-linecap="round" stroke-linejoin="round"/>
<path d="M273.464 134.183C273.464 134.183 274.691 132.959 276.082 132.959" stroke="#2E2C2C" stroke-width="0.5" stroke-linecap="round" stroke-linejoin="round"/>
<path d="M252.052 107.287C252.052 107.287 252.195 112.224 252.385 113.032C252.575 113.839 253.908 115.5 254.479 116.26C255.049 117.02 256.239 117.21 256.382 117.21C256.524 117.21 256.905 117.779 256.905 118.586C256.905 119.393 256.572 119.536 256.619 121.862C256.667 124.189 257 126.183 257 126.183C257 126.183 258.38 125.281 260.759 122.717C263.137 120.153 263.756 118.254 263.756 118.254C263.756 118.254 262.709 117.304 262.376 116.212C262.043 115.121 262.091 112.367 262.091 112.367C262.091 112.367 263.804 111.038 263.899 110.278C263.994 109.518 263.28 108.094 263.28 108.094C263.28 108.094 262.471 105.245 261.567 103.821C260.663 102.397 260.521 101.685 257.523 102.492C254.526 103.299 253.479 103.489 252.528 104.201C251.576 104.913 251.434 105.768 251.434 105.768L252.052 107.287Z" fill="white" stroke="#2E2C2C" stroke-width="0.5" stroke-linecap="round" stroke-linejoin="round"/>
<path d="M256.382 117.209C256.382 117.209 257.286 117.114 257.809 116.971C258.332 116.829 259.046 116.544 259.046 116.544L256.905 118.586L256.382 117.209Z" fill="#2E2C2C" stroke="#2E2C2C" stroke-width="0.5" stroke-linecap="round" stroke-linejoin="round"/>
<path d="M253.787 112.689C253.787 112.689 254.12 113.212 254.595 113.022C255.071 112.832 255.34 112.699 255.34 112.699" stroke="#2E2C2C" stroke-width="0.5" stroke-linecap="round" stroke-linejoin="round"/>
<path d="M255.097 114.075C255.097 114.075 256.81 114.313 257.809 112.888" stroke="#2E2C2C" stroke-width="0.5" stroke-linecap="round" stroke-linejoin="round"/>
<path d="M255.715 108.947C255.715 108.947 257.238 108.52 258.047 108.947" stroke="#2E2C2C" stroke-width="0.5" stroke-linecap="round" stroke-linejoin="round"/>
<path d="M253.717 109.138C253.717 109.138 252.908 108.616 252.433 109.233" stroke="#2E2C2C" stroke-width="0.5" stroke-linecap="round" stroke-linejoin="round"/>
<path d="M253.258 110.283C253.296 110.597 253.191 110.867 253.024 110.887C252.857 110.907 252.691 110.669 252.653 110.356C252.615 110.042 252.72 109.772 252.887 109.752C253.054 109.732 253.22 109.97 253.258 110.283Z" fill="#2E2C2C"/>
<path d="M256.658 110.151C256.696 110.464 256.591 110.735 256.424 110.755C256.257 110.775 256.091 110.537 256.053 110.223C256.015 109.909 256.12 109.639 256.287 109.619C256.454 109.599 256.62 109.837 256.658 110.151Z" fill="#2E2C2C"/>
<path d="M258.951 104.344C258.951 104.344 257.333 105.578 256.81 105.673C256.286 105.768 254.431 105.151 253.765 105.103C253.099 105.056 251.862 106.053 251.862 106.053L252.052 107.287C252.052 107.287 250.244 106.86 249.864 106.148C249.483 105.436 250.768 104.486 250.72 104.249C250.672 104.012 250.006 103.109 250.482 102.825C250.958 102.54 253.051 101.875 253.051 101.875C253.051 101.875 254.146 99.5962 254.907 99.5487C255.668 99.5012 257.095 99.7861 257.095 99.7861C257.095 99.7861 257.856 99.0739 258.76 99.2163C259.664 99.3587 260.997 101.02 260.997 101.02C260.997 101.02 262.995 100.831 263.375 101.685C263.756 102.54 264.137 103.679 263.851 104.581C263.566 105.483 263.28 107.382 263.28 107.382V108.095C263.28 108.095 262.471 108.237 262.091 108.569C261.71 108.902 261.758 109.187 261.472 109.424C261.187 109.661 261.044 109.661 260.854 109.566C260.663 109.471 260.568 109.187 260.473 108.617C260.378 108.047 260.283 107.905 259.902 107.762C259.522 107.62 258.998 107.335 258.618 106.908C258.237 106.48 257.761 106.101 258.047 105.721C258.332 105.341 258.951 104.344 258.951 104.344Z" fill="#2E2C2C" stroke="#2E2C2C" stroke-width="0.5" stroke-linecap="round" stroke-linejoin="round"/>
<path d="M268.714 130.208L270.827 133.172L267.286 131.975" stroke="#2E2C2C" stroke-width="0.5" stroke-linecap="round" stroke-linejoin="round"/>
<path d="M209.625 191.673C154.936 189.94 110.601 194.107 110.601 200.98C110.601 203.881 118.499 206.8 131.74 209.336C119.771 209.578 111.046 210.327 111.046 211.214C111.046 212.297 124.047 213.175 140.084 213.175C145.887 213.175 151.288 213.06 155.824 212.862C171.315 214.615 189.787 215.934 209.625 216.562C264.315 218.295 308.65 214.128 308.65 207.255C308.65 200.382 264.315 193.406 209.625 191.673Z" fill="#2E2C2C" stroke="#2E2C2C" stroke-width="0.5" stroke-linecap="round" stroke-linejoin="round"/>
<path d="M113.106 182.782C113.106 182.782 114.311 185.385 115.17 186.273C116.029 187.161 131.566 190.997 131.566 190.997L181.903 201.991L188.003 201.34L209.321 202.02C209.321 202.02 213.575 191.637 208.93 181.407C204.285 171.177 181.06 167.181 174.492 169.259C167.925 171.337 152.549 178.05 141.497 174.374C130.445 170.698 121.635 163.505 117.951 164.464C114.267 165.423 112.505 171.337 112.505 173.895C112.505 176.452 113.106 182.782 113.106 182.782Z" fill="#2E2C2C" stroke="#2E2C2C" stroke-width="0.5" stroke-linecap="round" stroke-linejoin="round"/>
<path d="M221.323 197.005C220.884 186.447 213.806 177.871 205.514 177.849H196.525L196.682 181.632C193.171 185.109 191.035 190.664 191.295 196.929C191.556 203.194 194.154 208.761 197.956 212.257L198.115 216.085H207.104C215.396 216.106 221.762 207.564 221.323 197.005Z" fill="#2E2C2C" stroke="#2E2C2C" stroke-width="0.5" stroke-linecap="round" stroke-linejoin="round"/>
<path d="M199.433 216.013C207.654 215.105 213.373 205.841 212.206 195.322C211.038 184.803 203.428 177.011 195.207 177.92C186.986 178.828 181.267 188.092 182.434 198.611C183.601 209.13 191.212 216.922 199.433 216.013Z" fill="#878787" stroke="#2E2C2C" stroke-width="0.5" stroke-linecap="round" stroke-linejoin="round"/>
<path d="M208.935 203.474L208.936 203.472C209.083 203 209.211 202.515 209.321 202.019L209.321 202.018C209.431 201.522 209.521 201.016 209.591 200.499C209.744 199.373 209.805 198.202 209.755 196.999C209.648 194.435 209.066 192.015 208.127 189.87L208.101 189.812C207.892 189.337 207.665 188.877 207.421 188.431C207.406 188.403 207.391 188.376 207.376 188.348C207.132 187.907 206.872 187.481 206.597 187.072C206.582 187.05 206.568 187.028 206.553 187.006C204.125 183.433 200.556 181.143 196.662 181.133C193.327 181.125 190.372 182.791 188.252 185.506C188.111 185.686 187.975 185.87 187.842 186.059C187.71 186.247 187.581 186.439 187.456 186.636L187.453 186.64C187.331 186.834 187.212 187.032 187.097 187.234L187.087 187.25C186.975 187.447 186.867 187.649 186.762 187.854L186.746 187.884C186.645 188.083 186.547 188.286 186.453 188.493C186.446 188.509 186.438 188.525 186.431 188.542C186.34 188.742 186.254 188.945 186.171 189.151C186.161 189.175 186.151 189.198 186.142 189.222C186.062 189.422 185.987 189.624 185.914 189.829C185.903 189.86 185.891 189.891 185.88 189.922C185.812 190.12 185.747 190.32 185.685 190.522C185.673 190.562 185.659 190.602 185.647 190.643C185.589 190.837 185.535 191.033 185.483 191.231C185.47 191.281 185.456 191.33 185.443 191.381C185.395 191.57 185.352 191.762 185.309 191.955C185.296 192.016 185.282 192.075 185.269 192.135C185.231 192.32 185.197 192.507 185.163 192.695C185.151 192.765 185.137 192.834 185.125 192.905C185.096 193.086 185.071 193.269 185.046 193.452C185.035 193.531 185.023 193.609 185.013 193.688C184.991 193.866 184.974 194.046 184.957 194.226C184.949 194.312 184.939 194.397 184.932 194.483C184.918 194.661 184.908 194.841 184.899 195.021C184.894 195.111 184.887 195.2 184.883 195.291C184.876 195.48 184.874 195.672 184.872 195.864C184.871 195.945 184.867 196.026 184.867 196.108C184.868 196.382 184.873 196.658 184.885 196.935C184.899 197.272 184.924 197.604 184.954 197.935C184.961 198.015 184.97 198.094 184.978 198.173C185.007 198.458 185.042 198.741 185.082 199.021C185.089 199.064 185.094 199.108 185.101 199.151C185.206 199.846 185.347 200.527 185.519 201.19C186.377 204.489 188.033 207.355 190.177 209.415C190.204 209.44 190.23 209.466 190.257 209.491C190.519 209.74 190.789 209.976 191.065 210.199C191.084 210.214 191.103 210.229 191.121 210.244C193.133 211.854 195.488 212.795 197.978 212.801C200.485 212.807 202.777 211.866 204.663 210.246C206.578 208.599 208.071 206.25 208.935 203.474Z" fill="white" stroke="#2E2C2C" stroke-width="0.5" stroke-linecap="round" stroke-linejoin="round"/>
<path d="M208.332 197.479C208.256 195.637 207.887 193.882 207.286 192.286L202.346 195.375C202.559 196.029 202.695 196.732 202.725 197.468C202.73 197.573 202.725 197.676 202.726 197.78L208.336 198.691C208.349 198.292 208.349 197.888 208.332 197.479Z" fill="#2E2C2C" stroke="#2E2C2C" stroke-width="0.5" stroke-linecap="round" stroke-linejoin="round"/>
<path d="M199.577 191.813C200.09 192.093 200.561 192.479 200.977 192.946L204.455 187.605C203.247 186.286 201.819 185.29 200.265 184.722L199.577 191.813Z" fill="#2E2C2C" stroke="#2E2C2C" stroke-width="0.5" stroke-linecap="round" stroke-linejoin="round"/>
<path d="M202.02 200.946C201.768 201.45 201.456 201.898 201.096 202.278L203.952 208.658C205.321 207.513 206.44 205.949 207.206 204.101L202.02 200.946Z" fill="#2E2C2C" stroke="#2E2C2C" stroke-width="0.5" stroke-linecap="round" stroke-linejoin="round"/>
<path d="M193.615 194.147L188.577 190.65C187.838 192.368 187.41 194.338 187.374 196.446L193.005 196.607C193.065 195.71 193.278 194.877 193.615 194.147Z" fill="#2E2C2C" stroke="#2E2C2C" stroke-width="0.5" stroke-linecap="round" stroke-linejoin="round"/>
<path d="M195.328 192.021C195.739 191.733 196.192 191.523 196.673 191.404L195.849 184.314C194.067 184.63 192.454 185.519 191.126 186.836L195.328 192.021Z" fill="#2E2C2C" stroke="#2E2C2C" stroke-width="0.5" stroke-linecap="round" stroke-linejoin="round"/>
<path d="M198.646 203.589C198.471 203.614 198.293 203.628 198.111 203.628C197.598 203.627 197.099 203.523 196.626 203.335L193.865 209.446C195.259 210.267 196.798 210.729 198.404 210.733C198.843 210.733 199.273 210.696 199.694 210.631L198.646 203.589Z" fill="#2E2C2C" stroke="#2E2C2C" stroke-width="0.5" stroke-linecap="round" stroke-linejoin="round"/>
<path d="M193.573 200.095L188.003 201.338C188.579 203.37 189.521 205.194 190.721 206.683L194.296 201.419C194.014 201.019 193.772 200.573 193.573 200.095Z" fill="#2E2C2C" stroke="#2E2C2C" stroke-width="0.5" stroke-linecap="round" stroke-linejoin="round"/>
<path d="M137.017 186.332C136.811 177.484 133.49 170.298 129.599 170.28H120.632L121.377 202.319H130.345C134.236 202.337 137.223 195.179 137.017 186.332Z" fill="#2E2C2C" stroke="#2E2C2C" stroke-width="0.5" stroke-linecap="round" stroke-linejoin="round"/>
<path d="M128.049 186.332C128.255 195.179 125.268 202.337 121.377 202.319C117.487 202.301 114.166 195.115 113.96 186.267C113.754 177.42 116.741 170.263 120.632 170.28C124.522 170.298 127.843 177.485 128.049 186.332Z" fill="#878787" stroke="#2E2C2C" stroke-width="0.5" stroke-linecap="round" stroke-linejoin="round"/>
<path d="M126.455 191.752L126.455 191.751C126.524 191.355 126.584 190.949 126.636 190.534L126.636 190.533C126.687 190.117 126.73 189.692 126.763 189.26C126.834 188.316 126.863 187.335 126.839 186.327C126.789 184.178 126.516 182.15 126.076 180.353L126.063 180.304C125.965 179.907 125.859 179.521 125.744 179.148C125.737 179.124 125.73 179.101 125.723 179.078C125.608 178.709 125.486 178.352 125.357 178.009C125.35 177.99 125.344 177.972 125.337 177.953C124.198 174.959 122.523 173.041 120.696 173.032C119.131 173.025 117.745 174.422 116.75 176.696C116.684 176.847 116.62 177.001 116.558 177.16C116.495 177.317 116.435 177.478 116.377 177.643L116.375 177.647C116.318 177.809 116.262 177.975 116.208 178.144L116.204 178.157C116.151 178.323 116.1 178.492 116.051 178.664L116.044 178.689C115.996 178.856 115.95 179.026 115.906 179.199C115.903 179.213 115.899 179.226 115.895 179.24C115.853 179.408 115.812 179.578 115.774 179.751C115.769 179.771 115.764 179.79 115.76 179.81C115.722 179.978 115.687 180.147 115.653 180.319C115.648 180.345 115.642 180.371 115.637 180.397C115.605 180.562 115.575 180.73 115.546 180.899C115.54 180.933 115.533 180.967 115.528 181.001C115.501 181.163 115.475 181.328 115.451 181.493C115.445 181.535 115.438 181.577 115.432 181.619C115.41 181.778 115.389 181.939 115.369 182.101C115.363 182.151 115.356 182.201 115.35 182.251C115.332 182.406 115.316 182.563 115.301 182.72C115.295 182.779 115.288 182.837 115.283 182.896C115.269 183.048 115.257 183.201 115.246 183.355C115.241 183.421 115.235 183.486 115.23 183.552C115.22 183.701 115.212 183.852 115.204 184.003C115.2 184.075 115.195 184.146 115.192 184.219C115.185 184.368 115.181 184.519 115.177 184.67C115.174 184.745 115.171 184.82 115.169 184.895C115.166 185.054 115.165 185.215 115.164 185.375C115.164 185.444 115.162 185.511 115.162 185.58C115.162 185.81 115.165 186.041 115.17 186.274C115.177 186.555 115.188 186.834 115.202 187.111C115.206 187.178 115.21 187.244 115.214 187.311C115.227 187.55 115.244 187.786 115.263 188.021C115.266 188.057 115.268 188.094 115.271 188.13C115.321 188.712 115.387 189.283 115.468 189.839C115.87 192.603 116.647 195.004 117.653 196.73C117.666 196.752 117.678 196.773 117.691 196.794C117.814 197.003 117.94 197.2 118.07 197.388C118.079 197.4 118.088 197.413 118.096 197.425C119.04 198.774 120.145 199.562 121.313 199.568C122.49 199.573 123.565 198.784 124.45 197.426C125.349 196.047 126.049 194.079 126.455 191.752Z" fill="white" stroke="#2E2C2C" stroke-width="0.5" stroke-linecap="round" stroke-linejoin="round"/>
<path d="M307.895 190.888C307.456 180.33 300.378 171.753 292.086 171.732H283.097C274.805 171.711 268.439 180.253 268.878 190.812C269.317 201.37 276.394 209.946 284.686 209.968H293.676C301.968 209.989 308.334 201.447 307.895 190.888Z" fill="#2E2C2C" stroke="#2E2C2C" stroke-width="0.5" stroke-linecap="round" stroke-linejoin="round"/>
<path d="M311.463 184.118C311.463 184.118 311.128 177.436 310.291 175.098C309.454 172.759 306.944 169.251 306.944 169.251C306.944 169.251 304.433 163.405 300.248 159.73C296.063 156.055 289.2 152.38 287.526 151.545C285.852 150.71 283.676 150.209 280.496 148.037C277.316 145.866 257.564 132.168 251.37 128.493C245.177 124.819 231.785 122.981 229.107 122.48C226.429 121.979 195.629 119.807 184.916 119.807C174.203 119.807 152.108 120.309 139.888 124.986C139.888 124.986 135.871 126.155 135.369 127.324C134.867 128.493 134.532 129.329 134.532 129.329L122.48 146.868C122.48 146.868 118.128 146.534 116.788 150.209C115.449 153.884 115.951 158.895 115.951 158.895C115.951 158.895 112.771 166.746 112.604 172.592C112.436 178.438 113.106 182.782 113.106 182.782C113.106 182.782 112.269 172.091 114.78 168.75C117.291 165.409 122.48 167.915 124.488 173.928C126.497 179.942 128.84 191.133 128.84 191.133L181.903 201.991C181.903 201.991 179.225 187.96 182.74 179.942C186.255 171.924 202.66 172.425 205.673 186.958C208.686 201.49 207.681 204.163 207.681 204.163C207.681 204.163 218.896 206.501 253.044 206C287.192 205.499 305.939 201.49 310.961 200.154C310.961 200.154 312.133 193.973 312.467 190.298C312.802 186.623 311.463 184.118 311.463 184.118ZM189.77 150.543C189.436 151.378 188.766 151.879 188.766 151.879C187.427 153.215 183.744 151.879 183.744 151.879C183.744 151.879 167.817 149.353 153.576 147.136C154.435 138.01 158.675 129.21 161.273 124.558C163.976 124.778 169.813 125.51 176.547 130.331C184.247 135.843 190.105 149.708 189.77 150.543Z" fill="#B0B3DD" stroke="#2E2C2C" stroke-width="0.5" stroke-linecap="round" stroke-linejoin="round"/>
<path d="M156.245 148.004L162.871 148.546" stroke="#2E2C2C" stroke-width="0.5" stroke-linecap="round" stroke-linejoin="round"/>
<path opacity="0.15" d="M312.467 190.297C312.802 186.622 311.463 184.117 311.463 184.117C311.463 184.117 311.356 181.979 311.111 179.698C290.167 185.865 252.69 186.281 242.238 185.361C230.232 184.304 208.93 181.406 207.985 177.961C207.041 174.516 198.804 166.685 193.154 164.57C188.311 162.758 132.103 154.992 116.143 152.81C115.653 155.878 115.951 158.894 115.951 158.894C115.951 158.894 112.771 166.744 112.604 172.591C112.436 178.437 113.106 182.78 113.106 182.78C113.106 182.78 112.269 172.09 114.78 168.749C117.291 165.408 122.48 167.914 124.488 173.927C126.497 179.941 128.84 191.132 128.84 191.132L181.903 201.99C181.903 201.99 179.225 187.958 182.74 179.941C186.255 171.923 202.66 172.424 205.673 186.956C208.686 201.489 207.681 204.161 207.681 204.161C207.681 204.161 218.896 206.5 253.044 205.999C287.192 205.498 305.939 201.489 310.961 200.152C310.961 200.152 312.133 193.972 312.467 190.297Z" fill="#2E2C2C"/>
<path d="M179.856 148.152C180.57 144.468 182.952 137.575 182.952 137.575C182.952 137.575 186.919 143.18 188.721 147.104C190.523 151.028 188.721 152.5 187.082 152.827C185.444 153.154 179.054 151.028 179.054 151.028L179.856 148.152Z" fill="#2E2C2C" stroke="#2E2C2C" stroke-width="0.5" stroke-linecap="round" stroke-linejoin="round"/>
<path d="M156.688 124.542C153.416 124.73 148.812 125.213 145.245 125.987C141.395 126.822 140.056 126.989 139.386 127.657C138.717 128.326 132.188 136.511 129.845 142.357C129.845 142.357 130.18 143.86 131.686 143.86C132.234 143.86 139.265 144.92 147.99 146.269C149.45 141.086 152.386 131.953 156.688 124.542Z" fill="#737373" stroke="#2E2C2C" stroke-width="0.5" stroke-linecap="round" stroke-linejoin="round"/>
<path d="M153.726 155.016L148.965 154.158C148.965 154.158 147.8 154.528 148.152 155.691C148.505 156.854 149.136 156.727 149.136 156.727L153.1 157.364C153.1 157.364 154.043 157.466 154.246 156.527C154.448 155.589 154.715 155.467 153.726 155.016Z" stroke="#2E2C2C" stroke-width="0.5" stroke-linecap="round" stroke-linejoin="round"/>
<path d="M129.652 150.876L126.016 150.18C126.016 150.18 125.127 150.48 125.396 151.425C125.665 152.37 126.147 152.267 126.147 152.267L129.174 152.784C129.174 152.784 129.894 152.866 130.048 152.104C130.202 151.342 130.407 151.243 129.652 150.876Z" stroke="#2E2C2C" stroke-width="0.5" stroke-linecap="round" stroke-linejoin="round"/>
<path d="M158.777 124.027C158.777 124.027 151.989 136.624 150.798 147.082" stroke="#2E2C2C" stroke-width="0.5" stroke-linecap="round" stroke-linejoin="round"/>
<path d="M149.25 149.221C149.25 149.221 146.153 154.45 146.034 156.233C145.915 158.015 146.272 179.407 146.868 183.328" stroke="#2E2C2C" stroke-width="0.5" stroke-linecap="round" stroke-linejoin="round"/>
<path d="M181.999 156.708C181.999 156.708 179.379 165.383 179.26 171.92C179.141 178.456 179.022 190.696 179.022 190.696" stroke="#2E2C2C" stroke-width="0.5" stroke-linecap="round" stroke-linejoin="round"/>
<path d="M129.48 144.705C129.48 144.705 123.883 149.815 123.407 151.479C122.93 153.143 123.526 167.404 123.526 167.404" stroke="#2E2C2C" stroke-width="0.5" stroke-linecap="round" stroke-linejoin="round"/>
<path d="M130.552 183.566C130.552 183.566 131.386 185.943 133.172 186.537C134.959 187.131 178.308 195.45 178.308 195.45" stroke="#2E2C2C" stroke-width="0.5" stroke-linecap="round" stroke-linejoin="round"/>
<path d="M256.131 191.108C256.131 191.108 289.327 191.564 301.662 187.765C301.662 187.765 300.444 195.97 298.159 197.642C295.875 199.313 279.274 201.02 271.207 201.289C262.07 201.593 256.893 200.681 256.893 200.681L256.131 191.108Z" fill="#2E2C2C" stroke="#2E2C2C" stroke-width="0.5" stroke-linecap="round" stroke-linejoin="round"/>
<path d="M250.193 170.442L253.543 177.28C253.543 177.28 272.273 177.736 274.404 177.888C276.536 178.04 278.82 179.104 281.257 177.888C283.693 176.672 294.2 175.305 295.418 175.305C296.637 175.305 298.159 176.369 298.159 176.369C298.159 176.369 295.418 169.53 294.353 168.923C293.287 168.315 292.221 168.467 291.764 168.467C291.307 168.467 269.075 166.795 250.193 170.442Z" fill="#2E2C2C" stroke="#2E2C2C" stroke-width="0.5" stroke-linecap="round" stroke-linejoin="round"/>
<path d="M214.892 156.793C214.892 156.793 206.928 155.57 203.865 156.64C200.802 157.71 202.333 161.836 207.54 165.657C212.748 169.477 217.036 173.145 222.396 173.756C227.756 174.368 236.945 176.354 237.404 174.673C237.864 172.992 236.179 166.879 230.053 162.447C223.927 158.015 214.892 156.793 214.892 156.793Z" fill="white" stroke="#2E2C2C" stroke-width="0.5" stroke-linecap="round" stroke-linejoin="round"/>
<path d="M278.905 148.08L277.377 148.541C277.377 148.541 274.536 148.627 269.989 148.752C266.093 148.866 260.947 149.008 255.26 149.156C247.41 149.367 238.534 149.583 230.519 149.754C218.266 150.01 208.009 150.141 206.469 149.913C203.822 149.526 200.861 148.57 198.112 146.167C196.566 144.824 195.083 143.019 193.759 140.594C190.08 133.866 180.741 125.617 180.741 125.617C195.442 123.932 230.514 124.547 234.495 124.7C235.488 124.735 236.76 124.888 238.175 125.145C242.425 125.896 247.97 127.564 251.187 129.744C251.757 130.131 252.676 130.74 253.828 131.509C256.521 133.302 260.514 135.943 264.524 138.596C266.943 140.19 269.367 141.79 271.518 143.213C275.739 145.991 278.905 148.08 278.905 148.08Z" fill="white" stroke="#2E2C2C" stroke-width="0.5" stroke-linecap="round" stroke-linejoin="round"/>
<path d="M251.187 129.745C251.757 130.132 252.676 130.741 253.828 131.509L230.519 149.754C218.266 150.01 208.009 150.141 206.469 149.914C203.822 149.526 200.861 148.57 198.112 146.168L238.175 125.145C242.425 125.896 247.97 127.564 251.187 129.745Z" fill="#2E2C2C" stroke="#2E2C2C" stroke-width="0.5" stroke-linecap="round" stroke-linejoin="round"/>
<path d="M271.518 143.213L269.989 148.752C266.093 148.866 260.947 149.008 255.26 149.156L264.524 138.596C266.943 140.19 269.367 141.79 271.518 143.213Z" fill="#2E2C2C" stroke="#2E2C2C" stroke-width="0.5" stroke-linecap="round" stroke-linejoin="round"/>
<path d="M245.895 165.87C246.828 166.813 247.73 167.811 248.584 168.866" stroke="#2E2C2C" stroke-width="0.5" stroke-linecap="round" stroke-linejoin="round"/>
<path d="M223.315 152.359C223.315 152.359 234.906 155.761 244.286 164.324" stroke="#2E2C2C" stroke-width="0.5" stroke-linecap="round" stroke-linejoin="round"/>
<path d="M297.556 168.596C298.714 170.773 299.639 173.202 300.194 175.896" stroke="#2E2C2C" stroke-width="0.5" stroke-linecap="round" stroke-linejoin="round"/>
<path d="M279.826 152.971C279.826 152.971 290.094 156.941 296.251 166.386" stroke="#2E2C2C" stroke-width="0.5" stroke-linecap="round" stroke-linejoin="round"/>
<path d="M232.503 194.082C232.503 195.854 230.789 197.291 228.675 197.291C226.56 197.291 224.846 195.854 224.846 194.082C224.846 192.309 226.56 190.873 228.675 190.873C230.789 190.873 232.503 192.309 232.503 194.082Z" fill="white" stroke="#2E2C2C" stroke-width="0.5" stroke-linecap="round" stroke-linejoin="round"/>
<path d="M311.796 188.867C311.472 190.394 310.438 191.47 309.486 191.269C308.535 191.069 308.026 189.667 308.349 188.14C308.673 186.612 309.707 185.536 310.659 185.737C311.61 185.938 312.119 187.339 311.796 188.867Z" fill="white" stroke="#2E2C2C" stroke-width="0.5" stroke-linecap="round" stroke-linejoin="round"/>
<path d="M181.328 151.122C181.328 151.122 178.656 146.631 176.969 146.351C175.282 146.07 168.11 145.789 166.564 146.772C165.017 147.754 165.439 150.981 166.001 151.823C166.564 152.665 168.814 153.086 170.782 152.946C172.751 152.805 179.359 153.367 179.359 153.367C179.359 153.367 183.296 156.173 184.702 155.892C186.109 155.612 187.936 152.525 186.671 150.841C185.405 149.157 183.437 149.578 181.328 151.122Z" fill="#2E2C2C" stroke="#2E2C2C" stroke-width="0.5" stroke-linecap="round" stroke-linejoin="round"/>
<path d="M181.328 151.121L185.968 152.103" stroke="#2E2C2C" stroke-width="0.5" stroke-linecap="round" stroke-linejoin="round"/>
<path d="M139.888 124.986C139.888 124.986 135.871 126.155 135.369 127.324C134.866 128.493 134.532 129.329 134.532 129.329L122.48 146.868C122.48 146.868 118.128 146.534 116.788 150.209C115.449 153.884 115.951 158.895 115.951 158.895C115.951 158.895 112.771 166.746 112.604 172.592C112.436 178.438 113.106 182.782 113.106 182.782C113.106 182.782 112.269 172.091 114.78 168.75C117.291 165.409 122.48 167.915 124.488 173.928C126.497 179.942 128.84 191.134 128.84 191.134L181.903 201.991C181.903 201.991 179.225 187.96 182.74 179.942C186.255 171.924 202.66 172.425 205.673 186.958C208.686 201.49 207.681 204.163 207.681 204.163C207.681 204.163 218.896 206.501 253.044 206C287.192 205.499 305.939 201.49 310.961 200.154C310.961 200.154 312.133 193.973 312.467 190.298C312.802 186.623 311.463 184.118 311.463 184.118C311.463 184.118 311.128 177.436 310.291 175.098C309.454 172.759 306.944 169.251 306.944 169.251C306.944 169.251 304.433 163.405 300.248 159.73C296.063 156.055 289.2 152.38 287.526 151.545C285.852 150.71 283.676 150.209 280.496 148.037C277.316 145.866 257.564 132.168 251.37 128.493C245.177 124.819 231.785 122.981 229.107 122.48C226.429 121.979 195.629 119.807 184.916 119.807C174.203 119.807 152.108 120.309 139.888 124.986Z" stroke="#2E2C2C" stroke-width="0.5" stroke-linecap="round" stroke-linejoin="round"/>
<path d="M294.221 155.417C294.221 155.417 290.852 156.639 291.771 157.862C292.69 159.084 297.744 162.294 300.041 166.267C302.338 170.241 302.798 172.227 303.87 172.227C304.942 172.227 307.26 170.247 306.943 169.251C306.626 168.254 304.942 159.237 294.221 155.417Z" fill="white" stroke="#2E2C2C" stroke-width="0.5" stroke-linecap="round" stroke-linejoin="round"/>
<path d="M125.712 186.038C125.677 184.395 125.508 182.83 125.233 181.407L122.968 184.162C123.066 184.745 123.128 185.372 123.142 186.028C123.144 186.122 123.142 186.214 123.142 186.306L125.714 187.119C125.72 186.763 125.72 186.403 125.712 186.038Z" fill="#2E2C2C" stroke="#2E2C2C" stroke-width="0.5" stroke-linecap="round" stroke-linejoin="round"/>
<path d="M121.7 180.986C121.935 181.235 122.151 181.579 122.341 181.995L123.935 177.233C123.382 176.057 122.727 175.169 122.015 174.662L121.7 180.986Z" fill="#2E2C2C" stroke="#2E2C2C" stroke-width="0.5" stroke-linecap="round" stroke-linejoin="round"/>
<path d="M122.819 189.128C122.703 189.578 122.56 189.977 122.395 190.317L123.705 196.005C124.332 194.984 124.845 193.59 125.196 191.942L122.819 189.128Z" fill="#2E2C2C" stroke="#2E2C2C" stroke-width="0.5" stroke-linecap="round" stroke-linejoin="round"/>
<path d="M118.966 183.066L116.657 179.948C116.318 181.48 116.122 183.236 116.105 185.116L118.687 185.259C118.714 184.46 118.812 183.717 118.966 183.066Z" fill="#2E2C2C" stroke="#2E2C2C" stroke-width="0.5" stroke-linecap="round" stroke-linejoin="round"/>
<path d="M119.752 181.17C119.94 180.913 120.148 180.727 120.368 180.621L119.991 174.298C119.174 174.579 118.435 175.373 117.826 176.547L119.752 181.17Z" fill="#2E2C2C" stroke="#2E2C2C" stroke-width="0.5" stroke-linecap="round" stroke-linejoin="round"/>
<path d="M121.273 191.487C121.192 191.509 121.111 191.522 121.027 191.521C120.792 191.52 120.563 191.428 120.347 191.261L119.081 196.709C119.72 197.442 120.426 197.854 121.162 197.857C121.363 197.858 121.56 197.824 121.753 197.766L121.273 191.487Z" fill="#2E2C2C" stroke="#2E2C2C" stroke-width="0.5" stroke-linecap="round" stroke-linejoin="round"/>
<path d="M118.947 188.37L116.394 189.479C116.658 191.291 117.09 192.917 117.64 194.245L119.279 189.551C119.149 189.194 119.039 188.796 118.947 188.37Z" fill="#2E2C2C" stroke="#2E2C2C" stroke-width="0.5" stroke-linecap="round" stroke-linejoin="round"/>
<path d="M113.484 138.899C113.484 138.899 141.744 140.476 144.229 141.51C146.714 142.543 147.336 145.023 147.336 145.023L111.924 143.783L113.484 138.899Z" fill="white" stroke="#2E2C2C" stroke-width="0.5" stroke-linecap="round" stroke-linejoin="round"/>
<path d="M134.143 125.016C134.143 125.016 118.033 136.708 111.924 143.783L105.712 142.543L122.944 126.045L134.143 125.016Z" fill="white" stroke="#2E2C2C" stroke-width="0.5" stroke-linecap="round" stroke-linejoin="round"/>
<path d="M150.798 147.083C150.798 147.083 153.842 132.262 158.777 124.028C158.777 124.028 141.48 121.705 122.636 124.598C121.541 124.766 104.469 139.029 104.469 139.029C104.469 139.029 94.5039 147.52 94.3218 149.155C94.3218 149.155 100.503 170.636 123.005 185.304L147.442 189.246C147.442 189.246 145.806 162.761 146.044 157.048C146.189 153.59 150.798 147.083 150.798 147.083ZM109.853 141.716C107.368 140.889 109.853 138.41 109.853 138.41L124.6 126.664C134.748 125.011 153.134 126.837 153.134 126.837C151.891 129.11 147.336 145.022 147.336 145.022C147.336 145.022 112.338 142.543 109.853 141.716Z" fill="#B0B3DD" stroke="#2E2C2C" stroke-width="0.5" stroke-linecap="round" stroke-linejoin="round"/>
<path d="M101.983 147.567L98.8578 147.296C98.8578 147.296 97.6351 147.432 97.6351 148.516C97.6351 149.601 98.5861 149.737 98.5861 149.737L104.642 150.283C104.642 150.283 104.499 148.455 105.45 147.912L101.983 147.567Z" fill="#2E2C2C" stroke="#2E2C2C" stroke-width="0.5" stroke-linecap="round" stroke-linejoin="round"/>
<path d="M97.7847 150.096C97.7847 150.096 98.7801 151.388 99.7756 151.388C100.771 151.388 104.554 151.785 104.554 151.785" fill="#B0B3DD"/>
<path d="M97.7847 150.096C97.7847 150.096 98.7801 151.388 99.7756 151.388C100.771 151.388 104.554 151.785 104.554 151.785" stroke="#2E2C2C" stroke-width="0.5" stroke-linecap="round" stroke-linejoin="round"/>
<path d="M295.326 127.518L296.528 127.425L301.617 142.844L300.177 143.026L295.326 127.518Z" fill="#2E2C2C" stroke="#2E2C2C" stroke-width="0.5" stroke-linecap="round" stroke-linejoin="round"/>
<path d="M287.042 126.755C287.042 126.755 288.842 125.775 289.251 125.775C289.66 125.775 291.132 127.734 291.132 127.734C291.132 127.734 289.087 128.877 288.842 128.959C288.596 129.04 287.206 128.387 287.206 128.387C287.206 128.387 285.815 129.448 285.161 130.673C284.506 131.897 281.807 136.386 281.807 136.386C281.807 136.386 280.335 138.509 278.781 137.611C277.227 136.713 276.654 134.591 277.308 133.693C277.963 132.795 287.042 126.755 287.042 126.755Z" fill="white" stroke="#2E2C2C" stroke-width="0.5" stroke-linecap="round" stroke-linejoin="round"/>
<path d="M285.652 129.04C285.652 129.04 286.143 129.611 286.633 129.693C287.124 129.775 288.515 129.775 288.515 129.775C288.515 129.775 290.069 129.611 288.842 128.958C287.615 128.305 286.633 127.979 286.633 127.979" fill="white"/>
<path d="M285.652 129.04C285.652 129.04 286.143 129.611 286.633 129.693C287.124 129.775 288.515 129.775 288.515 129.775C288.515 129.775 290.069 129.611 288.842 128.958C287.615 128.305 286.633 127.979 286.633 127.979" stroke="#2E2C2C" stroke-width="0.5" stroke-linecap="round" stroke-linejoin="round"/>
<path d="M61.7105 89.8219L55.1419 94.587L49.1578 89.9643L49.1503 89.9593C46.4407 88.0347 44.6718 84.8751 44.6718 81.3022C44.6718 75.4412 49.4347 70.6907 55.3081 70.6907C61.1814 70.6907 65.9419 75.4412 65.9419 81.3022C65.9419 84.8203 64.3502 87.8898 61.7105 89.8219Z" fill="white" stroke="#2E2C2C" stroke-width="0.5" stroke-linecap="round" stroke-linejoin="round"/>
<path d="M45.9719 81.2333C45.9719 83.4965 46.7803 85.573 48.1226 87.1914C49.8392 89.2554 52.429 90.57 55.3282 90.57C58.0004 90.57 60.4081 89.4546 62.1147 87.6645C63.709 85.9888 64.6846 83.7231 64.6846 81.2333C64.6846 76.0769 60.4979 71.8965 55.3282 71.8965C50.161 71.8965 45.9719 76.0769 45.9719 81.2333Z" fill="#B0B3DD" stroke="#2E2C2C" stroke-width="0.5" stroke-linejoin="round"/>
<path d="M55.3286 90.5698C57.6381 90.5698 59.749 89.7354 61.3814 88.3536C61.0758 85.1971 58.4115 82.7292 55.1683 82.7292C52.0137 82.7292 49.4125 85.0662 48.9911 88.0986C50.6582 89.6312 52.8821 90.5698 55.3286 90.5698Z" fill="#2E2C2C" stroke="#2E2C2C" stroke-width="0.5" stroke-linejoin="round"/>
<path d="M59.1147 79.7074C59.7746 77.5324 58.5428 75.2354 56.3632 74.5769C54.1837 73.9183 51.8819 75.1477 51.222 77.3226C50.5621 79.4976 51.794 81.7946 53.9735 82.4531C56.153 83.1116 58.4548 81.8823 59.1147 79.7074Z" fill="#2E2C2C" stroke="#2E2C2C" stroke-width="0.5" stroke-linejoin="round"/>
<path d="M57.4021 211.124C70.9634 211.124 81.9571 210.044 81.9571 208.711C81.9571 207.378 70.9634 206.298 57.4021 206.298C43.8407 206.298 32.847 207.378 32.847 208.711C32.847 210.044 43.8407 211.124 57.4021 211.124Z" fill="#2E2C2C" stroke="#2E2C2C" stroke-width="0.5" stroke-linecap="round" stroke-linejoin="round"/>
<path d="M70.8375 195.735L73.3649 203.51C73.3649 203.51 77.0987 204.36 78.0161 204.249C78.9336 204.138 82.2946 203.452 82.3725 204.093C82.4504 204.734 81.3828 205.142 81.0492 205.461C80.7157 205.78 78.3833 207.27 77.4993 207.656C76.6152 208.041 73.9186 208.832 73.1263 209.207C72.334 209.581 71.3916 210.253 70.7771 209.027C70.1627 207.8 69.8818 206.255 69.7817 205.431C69.6815 204.607 65.625 198.038 65.625 198.038L70.8375 195.735Z" fill="white" stroke="#2E2C2C" stroke-width="0.5" stroke-linecap="round" stroke-linejoin="round"/>
<path d="M78.0161 204.249C77.8534 204.269 77.6295 204.256 77.3742 204.225L77.5881 205.323C77.5881 205.323 72.7025 207.099 70.2642 207.711C70.4017 208.159 70.5689 208.611 70.7771 209.027C71.3916 210.253 72.334 209.581 73.1263 209.207C73.9186 208.832 76.6152 208.041 77.4992 207.656C78.3832 207.27 80.7157 205.78 81.0492 205.461C81.3829 205.142 82.4504 204.734 82.3725 204.093C82.2946 203.452 78.9335 204.138 78.0161 204.249Z" fill="#B0B3DD" stroke="#2E2C2C" stroke-width="0.5" stroke-linecap="round" stroke-linejoin="round"/>
<path d="M87.0926 120.343C87.0926 120.343 88.6047 120.029 88.4472 120.374C88.2897 120.72 87.2186 120.972 87.2186 120.972C87.2186 120.972 88.3842 121.003 88.1637 121.255C87.9431 121.506 87.3131 121.569 87.3131 121.569L86.8091 122.072C86.8091 122.072 86.3366 122.512 86.2106 122.638C86.0846 122.764 85.0765 123.549 84.856 123.141C84.6355 122.732 84.856 121.883 85.0765 121.695C85.297 121.506 87.0926 120.343 87.0926 120.343Z" fill="white" stroke="#2E2C2C" stroke-width="0.5" stroke-linecap="round" stroke-linejoin="round"/>
<path d="M59.8105 125.263L67.9139 129.674L82.1608 124.578C82.1608 124.578 82.7813 123.643 83.692 122.166C84.6027 120.689 86.2099 119.999 86.9115 119.569C87.6131 119.138 88.2127 119.34 88.0112 119.772C87.8098 120.204 86.5081 120.599 86.2404 120.897C85.9727 121.196 84.6332 123.022 84.6332 123.022C84.6332 123.022 87.0377 121.832 87.438 121.8C87.8382 121.768 88.0707 122.068 87.5026 122.432C86.9346 122.796 85.9659 123.359 85.765 123.624C85.564 123.89 85.0954 124.454 84.7278 124.719C84.3602 124.984 83.7591 125.282 83.7591 125.282C83.7591 125.282 69.9857 134.492 69.2401 134.864C68.4945 135.236 66.9288 135.236 66.9288 135.236L59.4729 132.185L59.8105 125.263Z" fill="white" stroke="#2E2C2C" stroke-width="0.5" stroke-linecap="round" stroke-linejoin="round"/>
<path d="M69.8242 129.003L67.9139 129.673L59.8105 125.262L59.4729 132.185L66.9288 135.236C66.9288 135.236 68.4946 135.236 69.2401 134.864C69.4114 134.778 70.3746 134.199 71.7489 133.362L69.8242 129.003Z" fill="#B0B3DD" stroke="#2E2C2C" stroke-width="0.5" stroke-linecap="round" stroke-linejoin="round"/>
<path d="M38.1897 193.934L35.7923 199.615C35.7923 199.615 32.3634 202.926 32.4068 203.398C32.4501 203.87 32.9747 204.998 33.9468 205.497C34.9188 205.997 36.4251 206.811 36.4251 206.811C36.4251 206.811 38.7542 208.335 40.217 208.677C41.6799 209.02 43.2213 209.607 43.4586 208.829C43.6959 208.051 40.9113 206.457 40.9113 206.457C40.9113 206.457 39.6519 204.052 39.4161 203.317C39.1802 202.582 39.3132 200.974 39.3132 200.974L43.6898 196.064L38.1897 193.934Z" fill="white" stroke="#2E2C2C" stroke-width="0.5" stroke-linecap="round" stroke-linejoin="round"/>
<path d="M40.9113 206.458C40.9113 206.458 39.9826 206.43 39.3169 206.211C38.6513 205.992 37.1193 204.592 35.6403 202.85C35.1223 202.241 34.5928 201.717 34.1215 201.29C33.2569 202.188 32.3848 203.158 32.4068 203.398C32.4501 203.87 32.9747 204.999 33.9468 205.498C34.9188 205.997 36.4251 206.812 36.4251 206.812C36.4251 206.812 38.7542 208.335 40.217 208.678C41.6798 209.02 43.2213 209.607 43.4586 208.829C43.6959 208.051 40.9113 206.458 40.9113 206.458Z" fill="#B0B3DD" stroke="#2E2C2C" stroke-width="0.5" stroke-linecap="round" stroke-linejoin="round"/>
<path d="M45.469 158.409L45.4388 175.924L36.4194 193.565L44.5594 198.409L54.3173 179.841L56.6863 166.805L45.469 158.409Z" fill="white" stroke="#2E2C2C" stroke-width="0.5" stroke-linecap="round" stroke-linejoin="round"/>
<path d="M44.908 148.896C44.908 148.896 42.8515 155.612 43.2254 157.104C43.5993 158.597 54.8865 181.246 54.8865 181.246L63.9774 199.828L74.073 196.843L65.4731 172.589L59.1166 157.664V149.642L44.908 148.896Z" fill="white" stroke="#2E2C2C" stroke-width="0.5" stroke-linecap="round" stroke-linejoin="round"/>
<path d="M59.0401 116.295L58.1303 118.679L55.7759 117.451L56.0557 114.89L59.0401 116.295Z" fill="white" stroke="#2E2C2C" stroke-width="0.5" stroke-linecap="round" stroke-linejoin="round"/>
<path d="M59.5924 119.285C59.5924 119.285 58.1816 119.708 58.3313 121.079C58.481 122.449 60.6602 127.729 61.1955 130.538C61.7307 133.346 61.2782 133.985 61.3731 135.218C61.4681 136.45 60.9031 147.925 61.0669 149.93C61.2307 151.934 60.4493 152.078 55.1792 151.963C49.909 151.848 46.9238 151.141 45.266 150.197C43.6084 149.252 44.3787 147.808 44.9647 146.649C45.5507 145.491 47.974 130.321 49.2353 126.486C50.4967 122.65 50.7291 121.224 52.7939 119.844C54.8587 118.464 55.1366 118.724 55.2783 118.128C55.42 117.532 55.746 116.651 55.746 116.651L59.5924 119.285Z" fill="#B0B3DD" stroke="#2E2C2C" stroke-width="0.5" stroke-linecap="round" stroke-linejoin="round"/>
<path d="M54.9763 134.035C54.9763 134.035 56.3865 135.566 58.3351 135.778" stroke="#2E2C2C" stroke-width="0.5" stroke-linecap="round" stroke-linejoin="round"/>
<path d="M54.24 139.233C54.4241 139.475 54.6193 139.706 54.8257 139.92" stroke="#2E2C2C" stroke-width="0.5" stroke-linecap="round" stroke-linejoin="round"/>
<path d="M51.8921 134.289C51.8921 134.289 52.4766 136.48 53.6809 138.419" stroke="#2E2C2C" stroke-width="0.5" stroke-linecap="round" stroke-linejoin="round"/>
<path d="M64.009 105.538C64.009 105.538 64.6904 107.043 64.1446 108.643C63.5988 110.243 63.4574 111.021 63.886 111.651C64.3145 112.282 64.4974 113.061 63.8044 113.444C63.1114 113.828 62.6819 113.845 62.6819 113.845C62.6819 113.845 61.4503 116.852 60.6347 117.148C59.8191 117.445 57.1647 116.426 56.3153 115.865C55.4659 115.304 56.1584 109.366 56.7472 108.352C57.336 107.338 64.009 105.538 64.009 105.538Z" fill="white" stroke="#2E2C2C" stroke-width="0.5" stroke-linecap="round" stroke-linejoin="round"/>
<path d="M61.6385 113.849C60.7268 113.892 60.3427 112.876 60.3427 112.876C60.3427 112.876 59.7671 114.562 60.4702 114.796C61.1733 115.029 61.6385 113.849 61.6385 113.849Z" stroke="#2E2C2C" stroke-width="0.5" stroke-linecap="round" stroke-linejoin="round"/>
<path d="M63.0698 110.485C62.9862 110.895 62.7454 111.193 62.532 111.149C62.3187 111.106 62.2134 110.738 62.297 110.329C62.3806 109.919 62.6213 109.622 62.8347 109.665C63.0481 109.708 63.1533 110.076 63.0698 110.485Z" fill="#2E2C2C"/>
<path d="M66.1256 102.654C66.1256 102.654 66.1661 104.858 64.5165 105.993C62.867 107.127 58.6404 108.363 57.9999 108.738C57.3595 109.114 57.3672 109.813 57.3672 109.813C57.3672 109.813 56.7655 113.687 56.7717 115.358C56.778 117.029 58.3011 118.395 57.7471 119.619C57.1931 120.843 55.4224 120.919 54.2917 120.944C53.1609 120.968 53.4829 122.587 51.4916 123.616C49.5004 124.645 47.9059 124.153 46.8388 122.603C45.7718 121.053 46.2901 120.267 45.3702 119.933C44.4504 119.599 42.9504 120.332 41.8762 117.759C40.8018 115.186 41.7776 113.245 42.5585 112.739C43.3394 112.233 46.2842 112.395 46.1312 109.184C45.9782 105.974 48.7029 100.887 52.738 98.8204C56.7731 96.7534 63.2622 100.699 64.1382 101.094C65.0141 101.489 66.153 101.84 66.1256 102.654Z" fill="#2E2C2C" stroke="#2E2C2C" stroke-width="0.5" stroke-linecap="round" stroke-linejoin="round"/>
<path d="M62.2512 145.399C62.2512 145.399 59.9807 128.343 58.1316 124.245C56.2826 120.148 54.3538 118.181 51.4362 121.76C48.5185 125.339 47.1492 146.276 47.1492 146.276" stroke="#2E2C2C" stroke-width="0.5" stroke-linecap="round" stroke-linejoin="round"/>
<path d="M56.2244 126.795C56.2244 126.795 49.4677 142.531 48.4481 143.54C47.4284 144.549 43.608 146.673 42.6314 144.181C41.6548 141.689 49.8133 123.281 51.6258 121.425C53.4383 119.569 56.8902 120.32 56.9735 123.616" fill="#B0B3DD"/>
<path d="M56.2244 126.795C56.2244 126.795 49.4677 142.531 48.4481 143.54C47.4284 144.549 43.608 146.673 42.6314 144.181C41.6548 141.689 49.8133 123.281 51.6258 121.425C53.4383 119.569 56.8902 120.32 56.9735 123.616" stroke="#2E2C2C" stroke-width="0.5" stroke-linecap="round" stroke-linejoin="round"/>
<path d="M56.806 141.979C56.806 141.979 58.2174 141.675 58.9892 140.918C59.7609 140.162 60.7101 139.883 61.5424 139.974C62.3746 140.064 63.5261 140.037 63.5866 140.884C63.6472 141.731 63.0598 142.201 62.8163 142.328C62.5728 142.454 62.3349 145.331 61.6802 145.719C61.0253 146.106 58.4941 145.448 57.5944 145.274C56.6947 145.1 51.0064 146.009 48.1312 145.696C45.2561 145.383 42.6671 145.254 42.6313 144.18C42.5955 143.107 43.9847 140.202 47.2121 140.095C50.4394 139.988 53.133 141.962 56.806 141.979Z" fill="white" stroke="#2E2C2C" stroke-width="0.5" stroke-linecap="round" stroke-linejoin="round"/>
<path d="M62.2509 145.399C62.2509 145.399 60.8574 146.241 54.3354 146.372C47.8133 146.502 47.1489 146.277 47.1489 146.277C47.1489 146.277 45.209 154.625 45.907 155.539C47.1796 157.206 60.3076 156.877 61.591 155.642C62.8744 154.406 62.2509 145.399 62.2509 145.399Z" fill="#969696" stroke="#2E2C2C" stroke-width="0.5" stroke-linecap="round" stroke-linejoin="round"/>
<path d="M62.1533 109.109C62.1533 109.109 62.5979 108.42 63.4316 108.779" stroke="#2E2C2C" stroke-width="0.5" stroke-linecap="round" stroke-linejoin="round"/>
</svg>
