<svg width="16" height="16" viewBox="0 0 16 16" fill="none" xmlns="http://www.w3.org/2000/svg">
<path d="M8 0.800049C11.9764 0.800049 15.2 4.02369 15.2 8.00005C15.2 11.9764 11.9764 15.2 8 15.2C4.02364 15.2 0.800003 11.9764 0.800003 8.00005C0.800003 4.02369 4.02364 0.800049 8 0.800049ZM1.78182 8.00005C1.78182 9.64921 2.43695 11.2308 3.60308 12.397C4.76922 13.5631 6.35084 14.2182 8 14.2182C9.64917 14.2182 11.2308 13.5631 12.3969 12.397C13.5631 11.2308 14.2182 9.64921 14.2182 8.00005C14.2182 6.35088 13.5631 4.76927 12.3969 3.60313C11.2308 2.437 9.64917 1.78187 8 1.78187C6.35084 1.78187 4.76922 2.437 3.60308 3.60313C2.43695 4.76927 1.78182 6.35088 1.78182 8.00005Z" fill="#999999"/>
</svg>
