<svg width="16" height="16" viewBox="0 0 16 16" fill="none" xmlns="http://www.w3.org/2000/svg">
<path d="M14.0457 6.17144C14.48 6.56001 14.8457 6.93715 15.12 7.23429C15.3095 7.4443 15.4145 7.71713 15.4145 8.00001C15.4145 8.28289 15.3095 8.55572 15.12 8.76572C13.92 10.0572 11.1886 12.5714 8.00002 12.5714H7.54287M4.42287 11.5772C3.09903 10.8357 1.90284 9.88649 0.880016 8.76572C0.690484 8.55572 0.585571 8.28289 0.585571 8.00001C0.585571 7.71713 0.690484 7.4443 0.880016 7.23429C2.08002 5.94287 4.81144 3.42858 8.00002 3.42858C9.2569 3.45485 10.487 3.79676 11.5772 4.42287M14.2857 1.71429L1.7143 14.2857" stroke="#BFBFBF" stroke-linecap="round" stroke-linejoin="round"/>
<path d="M6.38864 9.61144C5.9594 9.18475 5.71691 8.60524 5.71436 8.00001C5.71436 7.3938 5.95517 6.81242 6.38383 6.38376C6.81248 5.95511 7.39386 5.71429 8.00007 5.71429C8.6053 5.71685 9.18481 5.95934 9.6115 6.38858M9.98864 9.14287C9.78519 9.49064 9.49344 9.77845 9.14293 9.97715" stroke="#BFBFBF" stroke-linecap="round" stroke-linejoin="round"/>
</svg>
