<svg width="35" height="23" viewBox="0 0 35 23" fill="none" xmlns="http://www.w3.org/2000/svg">
<g id="Group">
<path id="Vector" d="M33.075 9.825C33.4896 10.2844 33.7191 10.8812 33.7191 11.5C33.7191 12.1188 33.4896 12.7156 33.075 13.175C30.45 16 24.475 21.5 17.5 21.5C10.525 21.5 4.54998 16 1.92498 13.175C1.51038 12.7156 1.28088 12.1188 1.28088 11.5C1.28088 10.8812 1.51038 10.2844 1.92498 9.825C4.54998 7 10.525 1.5 17.5 1.5C24.475 1.5 30.45 7 33.075 9.825Z" stroke="black" stroke-width="2" stroke-linecap="round" stroke-linejoin="round"/>
<path id="Vector_2" d="M17.5 16.5C20.2614 16.5 22.5 14.2614 22.5 11.5C22.5 8.73858 20.2614 6.5 17.5 6.5C14.7386 6.5 12.5 8.73858 12.5 11.5C12.5 14.2614 14.7386 16.5 17.5 16.5Z" stroke="black" stroke-width="2" stroke-linecap="round" stroke-linejoin="round"/>
</g>
</svg>
